# xmcd
# Copyright (C) 1995-1998 Ti Kan
#
# Track frame offsets:
#       150
#       14400
#       30225
#       46200
#       80550
#       110850
#       128475
#       162525
#       178050
#       199650
#       216450
#       231075
#       273150
#       303450
#
# Disc length: 4349 seconds
#
# Revision: 13
# Processed by: cddbd v1.5.2PL0 Copyright (c) Steve Scherf et al.
# Submitted via: CD-Transfer v1.0
#
DISCID=bf10fb0e
DTITLE=Snuttock - N/A
DYEAR=08
DGENRE=
TTITLE0=Liar (Lirics!)
TTITLE1=Everybody In The Place (Re-Issue)
TTITLE2=Cherchez Le Garcon (Fred Rister and Quentin Mosimann Remix)
TTITLE3=Out Of The Sky (Lub Mix)
TTITLE4=Unforgivable (First State Renix Edit)
TTITLE5=Into The Nightlife (Soul Seekerz Radio)
TTITLE6=Cafe Del Mar (Deadmaus5 Remix)
TTITLE7=Stand On The Word (Mima Remix Radio Edit)
TTITLE8=Stand On The Word (Orginal)
TTITLE9=Disco Infiltrator (Radio Edit) (Re-Issue)
TTITLE10=Talk Like That (Radio Edit)
TTITLE11=Disturbia (Craig  C's Disturbstramental)
TTITLE12=Longest Road, The
TTITLE13=Everybody (Mad As Hell Mix By Djk)
EXTD=
EXTT0=
EXTT1=
EXTT2=
EXTT3=
EXTT4=
EXTT5=
EXTT6=
EXTT7=
EXTT8=
EXTT9=
EXTT10=
EXTT11=
EXTT12=
EXTT13=
PLAYORDER=
